<svg width="414" height="414" viewBox="0 0 414 414" fill="none" xmlns="http://www.w3.org/2000/svg">
<mask id="mask0_1277_2258" style="mask-type:alpha" maskUnits="userSpaceOnUse" x="0" y="0" width="414" height="414">
<circle cx="207" cy="207" r="207" fill="#828AF2"/>
</mask>
<g mask="url(#mask0_1277_2258)">
<circle cx="207" cy="207" r="207" fill="#9A7EF8"/>
<path d="M199.677 414.476C363.959 424.83 439.081 279.086 429.127 209.897L233.728 77.4933L227.441 76L206.487 223.337L97 331.848L199.677 414.476Z" fill="#7B57F4"/>
<path d="M266.519 340.84C299.391 340.84 347.999 340.84 311.466 283.768C306.076 273.9 299.267 264.76 291.173 256.666C268.849 234.341 238.571 221.8 206.999 221.8C175.428 221.8 145.15 234.341 122.826 256.666C114.731 264.76 107.923 273.9 102.532 283.768C71.356 340.84 114.608 340.84 147.479 340.84H266.519Z" fill="white"/>
<path d="M281.399 147.4C281.399 188.49 248.089 221.8 206.999 221.8C165.909 221.8 132.599 188.49 132.599 147.4C132.599 106.31 165.909 73 206.999 73C248.089 73 281.399 106.31 281.399 147.4Z" fill="white"/>
</g>
</svg>
