<svg width="24" height="24" viewBox="0 0 24 24" fill="none" xmlns="http://www.w3.org/2000/svg">
<path d="M19.5 3H4.5C4.10218 3 3.72064 3.15804 3.43934 3.43934C3.15804 3.72064 3 4.10218 3 4.5V19.5C3 19.8978 3.15804 20.2794 3.43934 20.5607C3.72064 20.842 4.10218 21 4.5 21H19.5C19.8978 21 20.2794 20.842 20.5607 20.5607C20.842 20.2794 21 19.8978 21 19.5V4.5C21 4.10218 20.842 3.72064 20.5607 3.43934C20.2794 3.15804 19.8978 3 19.5 3Z" stroke="#5861E2" stroke-width="2" stroke-linecap="round" stroke-linejoin="round"/>
<path d="M7 7.5H17M7 11.5H11" stroke="#5861E2" stroke-width="2" stroke-linecap="round" stroke-linejoin="round"/>
<path d="M18.059 14.4714C18.6644 14.8567 18.6788 15.7355 18.0864 16.1405L15.308 18.04C14.6504 18.4896 13.7568 18.0274 13.7437 17.2309L13.6828 13.5242C13.6697 12.7277 14.5477 12.2364 15.2196 12.6641L18.059 14.4714Z" fill="#5861E2"/>
</svg>
